<mxfile host="app.diagrams.net" agent="Mozilla/5.0 (Macintosh; Intel Mac OS X 10_15_7) AppleWebKit/537.36 (KHTML, like Gecko) Chrome/126.0.0.0 Safari/537.36" version="24.7.16">
  <diagram name="Page-1" id="A6Np1FUxWvetzAvlPRH4">
    <mxGraphModel dx="2171" dy="918" grid="1" gridSize="10" guides="1" tooltips="1" connect="1" arrows="1" fold="1" page="1" pageScale="1" pageWidth="827" pageHeight="1169" math="0" shadow="0">
      <root>
        <mxCell id="0" />
        <mxCell id="1" parent="0" />
        <mxCell id="QQri4xlr-N3-HqDQR7zh-1" value="" style="rounded=1;whiteSpace=wrap;html=1;" vertex="1" parent="1">
          <mxGeometry x="140" y="20" width="540" height="1050" as="geometry" />
        </mxCell>
        <mxCell id="QQri4xlr-N3-HqDQR7zh-2" value="" style="rounded=0;whiteSpace=wrap;html=1;" vertex="1" parent="1">
          <mxGeometry x="60" y="340" width="730" height="370" as="geometry" />
        </mxCell>
        <mxCell id="QQri4xlr-N3-HqDQR7zh-3" value="" style="rounded=1;whiteSpace=wrap;html=1;" vertex="1" parent="1">
          <mxGeometry x="80" y="340" width="90" height="40" as="geometry" />
        </mxCell>
        <mxCell id="QQri4xlr-N3-HqDQR7zh-4" value="" style="rounded=1;whiteSpace=wrap;html=1;" vertex="1" parent="1">
          <mxGeometry x="220" y="340" width="90" height="40" as="geometry" />
        </mxCell>
        <mxCell id="QQri4xlr-N3-HqDQR7zh-5" value="" style="rounded=1;whiteSpace=wrap;html=1;" vertex="1" parent="1">
          <mxGeometry x="590" y="670" width="90" height="40" as="geometry" />
        </mxCell>
        <mxCell id="QQri4xlr-N3-HqDQR7zh-6" value="" style="rounded=1;whiteSpace=wrap;html=1;" vertex="1" parent="1">
          <mxGeometry x="60" y="520" width="90" height="40" as="geometry" />
        </mxCell>
        <mxCell id="QQri4xlr-N3-HqDQR7zh-7" value="" style="rounded=1;whiteSpace=wrap;html=1;" vertex="1" parent="1">
          <mxGeometry x="60" y="590" width="90" height="40" as="geometry" />
        </mxCell>
        <mxCell id="QQri4xlr-N3-HqDQR7zh-8" value="" style="rounded=1;whiteSpace=wrap;html=1;" vertex="1" parent="1">
          <mxGeometry x="690" y="440" width="100" height="45" as="geometry" />
        </mxCell>
        <mxCell id="QQri4xlr-N3-HqDQR7zh-9" value="" style="rounded=1;whiteSpace=wrap;html=1;" vertex="1" parent="1">
          <mxGeometry x="700" y="530" width="90" height="45" as="geometry" />
        </mxCell>
        <mxCell id="QQri4xlr-N3-HqDQR7zh-10" value="" style="shape=process;whiteSpace=wrap;html=1;backgroundOutline=1;" vertex="1" parent="1">
          <mxGeometry x="205" y="20" width="120" height="60" as="geometry" />
        </mxCell>
        <mxCell id="QQri4xlr-N3-HqDQR7zh-11" value="" style="shape=process;whiteSpace=wrap;html=1;backgroundOutline=1;" vertex="1" parent="1">
          <mxGeometry x="500" y="20" width="120" height="60" as="geometry" />
        </mxCell>
        <mxCell id="QQri4xlr-N3-HqDQR7zh-12" value="" style="shape=process;whiteSpace=wrap;html=1;backgroundOutline=1;" vertex="1" parent="1">
          <mxGeometry x="353.5" y="20" width="120" height="60" as="geometry" />
        </mxCell>
        <mxCell id="QQri4xlr-N3-HqDQR7zh-13" value="" style="rounded=0;whiteSpace=wrap;html=1;" vertex="1" parent="1">
          <mxGeometry x="140" y="100" width="170" height="60" as="geometry" />
        </mxCell>
        <mxCell id="QQri4xlr-N3-HqDQR7zh-14" value="" style="rounded=0;whiteSpace=wrap;html=1;" vertex="1" parent="1">
          <mxGeometry x="360" y="100" width="160" height="60" as="geometry" />
        </mxCell>
        <mxCell id="QQri4xlr-N3-HqDQR7zh-15" value="" style="rounded=1;whiteSpace=wrap;html=1;" vertex="1" parent="1">
          <mxGeometry x="540" y="100" width="140" height="60" as="geometry" />
        </mxCell>
        <mxCell id="QQri4xlr-N3-HqDQR7zh-16" value="Imposter" style="text;html=1;align=center;verticalAlign=middle;whiteSpace=wrap;rounded=0;" vertex="1" parent="1">
          <mxGeometry x="235" y="345" width="60" height="30" as="geometry" />
        </mxCell>
        <mxCell id="QQri4xlr-N3-HqDQR7zh-17" value="Menu Item" style="text;html=1;align=center;verticalAlign=middle;whiteSpace=wrap;rounded=0;" vertex="1" parent="1">
          <mxGeometry x="95" y="345" width="60" height="30" as="geometry" />
        </mxCell>
        <mxCell id="QQri4xlr-N3-HqDQR7zh-18" value="Menu Item" style="text;html=1;align=center;verticalAlign=middle;whiteSpace=wrap;rounded=0;" vertex="1" parent="1">
          <mxGeometry x="720" y="537.5" width="60" height="30" as="geometry" />
        </mxCell>
        <mxCell id="QQri4xlr-N3-HqDQR7zh-19" value="Imposter" style="text;html=1;align=center;verticalAlign=middle;whiteSpace=wrap;rounded=0;" vertex="1" parent="1">
          <mxGeometry x="70" y="525" width="60" height="30" as="geometry" />
        </mxCell>
        <mxCell id="QQri4xlr-N3-HqDQR7zh-20" value="Imposter" style="text;html=1;align=center;verticalAlign=middle;whiteSpace=wrap;rounded=0;" vertex="1" parent="1">
          <mxGeometry x="710" y="447.5" width="60" height="30" as="geometry" />
        </mxCell>
        <mxCell id="QQri4xlr-N3-HqDQR7zh-21" value="Imposter" style="text;html=1;align=center;verticalAlign=middle;whiteSpace=wrap;rounded=0;" vertex="1" parent="1">
          <mxGeometry x="600" y="675" width="60" height="30" as="geometry" />
        </mxCell>
        <mxCell id="QQri4xlr-N3-HqDQR7zh-22" value="Menu Item" style="text;html=1;align=center;verticalAlign=middle;whiteSpace=wrap;rounded=0;" vertex="1" parent="1">
          <mxGeometry x="75" y="595" width="60" height="30" as="geometry" />
        </mxCell>
        <mxCell id="QQri4xlr-N3-HqDQR7zh-23" value="Menu Item" style="text;html=1;align=center;verticalAlign=middle;whiteSpace=wrap;rounded=0;" vertex="1" parent="1">
          <mxGeometry x="190" y="115" width="60" height="30" as="geometry" />
        </mxCell>
        <mxCell id="QQri4xlr-N3-HqDQR7zh-24" value="Menu Item" style="text;html=1;align=center;verticalAlign=middle;whiteSpace=wrap;rounded=0;" vertex="1" parent="1">
          <mxGeometry x="410" y="115" width="60" height="30" as="geometry" />
        </mxCell>
        <mxCell id="QQri4xlr-N3-HqDQR7zh-25" value="Menu Item" style="text;html=1;align=center;verticalAlign=middle;whiteSpace=wrap;rounded=0;" vertex="1" parent="1">
          <mxGeometry x="580" y="115" width="60" height="30" as="geometry" />
        </mxCell>
        <mxCell id="QQri4xlr-N3-HqDQR7zh-26" value="Menu Item" style="text;html=1;align=center;verticalAlign=middle;whiteSpace=wrap;rounded=0;" vertex="1" parent="1">
          <mxGeometry x="235" y="35" width="60" height="30" as="geometry" />
        </mxCell>
        <mxCell id="QQri4xlr-N3-HqDQR7zh-27" value="Menu Item" style="text;html=1;align=center;verticalAlign=middle;whiteSpace=wrap;rounded=0;" vertex="1" parent="1">
          <mxGeometry x="384" y="35" width="60" height="30" as="geometry" />
        </mxCell>
        <mxCell id="QQri4xlr-N3-HqDQR7zh-28" value="Menu Item" style="text;html=1;align=center;verticalAlign=middle;whiteSpace=wrap;rounded=0;" vertex="1" parent="1">
          <mxGeometry x="530" y="30" width="60" height="30" as="geometry" />
        </mxCell>
        <mxCell id="QQri4xlr-N3-HqDQR7zh-30" value="" style="endArrow=classic;startArrow=classic;html=1;rounded=0;exitX=0;exitY=0;exitDx=0;exitDy=0;" edge="1" parent="1" source="QQri4xlr-N3-HqDQR7zh-3">
          <mxGeometry width="50" height="50" relative="1" as="geometry">
            <mxPoint x="390" y="500" as="sourcePoint" />
            <mxPoint x="80" y="20" as="targetPoint" />
          </mxGeometry>
        </mxCell>
        <mxCell id="QQri4xlr-N3-HqDQR7zh-32" value="ScrollY" style="text;html=1;align=center;verticalAlign=middle;whiteSpace=wrap;rounded=0;" vertex="1" parent="1">
          <mxGeometry x="10" y="160" width="60" height="30" as="geometry" />
        </mxCell>
        <mxCell id="QQri4xlr-N3-HqDQR7zh-33" value="" style="endArrow=classic;startArrow=classic;html=1;rounded=0;exitX=0.906;exitY=-0.009;exitDx=0;exitDy=0;exitPerimeter=0;" edge="1" parent="1" source="QQri4xlr-N3-HqDQR7zh-2">
          <mxGeometry width="50" height="50" relative="1" as="geometry">
            <mxPoint x="390" y="500" as="sourcePoint" />
            <mxPoint x="720" y="240" as="targetPoint" />
          </mxGeometry>
        </mxCell>
        <mxCell id="QQri4xlr-N3-HqDQR7zh-36" value="3 ScrollH" style="text;html=1;align=center;verticalAlign=middle;whiteSpace=wrap;rounded=0;" vertex="1" parent="1">
          <mxGeometry x="730" y="260" width="60" height="30" as="geometry" />
        </mxCell>
        <mxCell id="QQri4xlr-N3-HqDQR7zh-38" value="5 ScrollH" style="text;html=1;align=center;verticalAlign=middle;whiteSpace=wrap;rounded=0;" vertex="1" parent="1">
          <mxGeometry x="10" y="190" width="60" height="30" as="geometry" />
        </mxCell>
      </root>
    </mxGraphModel>
  </diagram>
</mxfile>
